<?xml version="1.0" encoding="UTF-8"?>
<svg id="_图层_1" data-name="图层 1" xmlns="http://www.w3.org/2000/svg" viewBox="0 0 33.72 37.24">
  <defs>
    <style>
      .cls-1 {
        fill: none;
        stroke: #d3d3d3;
        stroke-miterlimit: 10;
        stroke-width: 1px;
      }
    </style>
  </defs>
  <path class="cls-1" d="M12.12,20.27c0-1.4.28-2.79.28-4.19h6.69c0,1.4.28,2.79.28,4.19h-7.26ZM19.09,26.65h-6.69c0-1.11-.28-2.51-.28-4.16h7.26c0,1.65-.28,3.05-.28,4.16h0ZM16.6,9.99c.82.83,1.39,2.22,1.93,3.87h-5.56c.57-1.65,1.11-3.05,1.96-3.87-1.67,0-3.06.54-4.48,1.37-.26.85-.54,1.68-.82,2.51h-2.78c-.57.85-.85,1.68-1.39,2.22h3.6c0,1.4-.26,2.79-.26,4.19h-4.48v2.22h4.48c0,1.4.26,2.76.26,4.16h-3.6c.54.83.82,1.68,1.39,2.22h2.78c.28.83.57,1.94.82,2.79,1.42.54,2.81,1.11,4.48,1.11-.85-.57-1.39-1.97-1.96-3.9h5.56c-.54,1.94-1.11,3.33-1.93,3.9,1.67,0,3.06-.57,4.45-1.11.28-.85.54-1.97.82-2.79h2.81c.54-.54.82-1.4,1.39-2.22h-3.63c0-1.4.28-2.76.28-4.16h.28c-.85-.85-1.13-1.68-1.13-2.79v-5.84c-.28-1.11-.54-1.94-.82-2.51-1.39-.83-2.78-1.37-4.45-1.37h0Z"/>
  <path class="cls-1" d="M30.83,19.76c0,1.97-1.39,3.62-3.34,4.19-1.11,5.55-5.84,9.74-11.68,9.74-6.69,0-11.96-5.58-11.96-12.25s5.27-11.96,11.96-11.96c.82,0,1.93,0,2.78.26l-.28-.26c-.28-.85,0-1.68.57-2.79l.26-.28c-1.11,0-2.21-.28-3.32-.28C7.44,6.12.5,13.1.5,21.44s6.94,15.3,15.31,15.3,15.28-6.67,15.28-15.3c0-1.11,0-2.22-.26-3.08v1.4Z"/>
  <path class="cls-1" d="M21.84,10.82h-.45s.23,0,.45.26v-.26Z"/>
  <path class="cls-1" d="M32.61,7.43l-4.71-6.1c-.85-1.11-2.49-1.11-3.34,0l-4.99,6.1c-.85,1.11-.28,2.25,1.11,2.25,0,0,1.67,0,1.96.26.26.28.26,1.68.26,1.68v8.06c0,1.65,1.39,3.33,3.34,3.33s3.34-1.68,3.34-3.33v-8.06s0-1.4.26-1.68c.57-.54,1.96-.26,1.96-.26,1.39,0,1.96-1.14.82-2.25h0Z"/>
</svg>